# Blender v2.69 (sub 0) OBJ File: ''
# www.blender.org
mtllib barrel.mtl
v 0.000000 -1.292269 -1.000000
v 0.000000 1.584538 -1.000000
v 0.195090 -1.292269 -0.980785
v 0.195090 1.584538 -0.980785
v 0.382683 -1.292269 -0.923880
v 0.382683 1.584538 -0.923880
v 0.555570 -1.292269 -0.831470
v 0.555570 1.584538 -0.831470
v 0.707107 -1.292269 -0.707107
v 0.707107 1.584538 -0.707107
v 0.831470 -1.292269 -0.555570
v 0.831470 1.584538 -0.555570
v 0.923880 -1.292269 -0.382683
v 0.923880 1.584538 -0.382683
v 0.980785 -1.292269 -0.195090
v 0.980785 1.584538 -0.195090
v 1.000000 -1.292269 -0.000000
v 1.000000 1.584538 -0.000000
v 0.980785 -1.292269 0.195090
v 0.980785 1.584538 0.195090
v 0.923880 -1.292269 0.382683
v 0.923880 1.584538 0.382683
v 0.831470 -1.292269 0.555570
v 0.831470 1.584538 0.555570
v 0.707107 -1.292269 0.707107
v 0.707107 1.584538 0.707107
v 0.555570 -1.292269 0.831470
v 0.555570 1.584538 0.831470
v 0.382683 -1.292269 0.923880
v 0.382683 1.584538 0.923880
v 0.195090 -1.292269 0.980785
v 0.195090 1.584538 0.980785
v -0.000000 -1.292269 1.000000
v -0.000000 1.584538 1.000000
v -0.195091 -1.292269 0.980785
v -0.195091 1.584538 0.980785
v -0.382684 -1.292269 0.923879
v -0.382684 1.584538 0.923879
v -0.555571 -1.292269 0.831469
v -0.555571 1.584538 0.831469
v -0.707107 -1.292269 0.707106
v -0.707107 1.584538 0.707106
v -0.831470 -1.292269 0.555570
v -0.831470 1.584538 0.555570
v -0.923880 -1.292269 0.382683
v -0.923880 1.584538 0.382683
v -0.980785 -1.292269 0.195089
v -0.980785 1.584538 0.195089
v -1.000000 -1.292269 -0.000001
v -1.000000 1.584538 -0.000001
v -0.980785 -1.292269 -0.195091
v -0.980785 1.584538 -0.195091
v -0.923879 -1.292269 -0.382684
v -0.923879 1.584538 -0.382684
v -0.831469 -1.292269 -0.555571
v -0.831469 1.584538 -0.555571
v -0.707106 -1.292269 -0.707108
v -0.707106 1.584538 -0.707108
v -0.555569 -1.292269 -0.831470
v -0.555569 1.584538 -0.831470
v -0.382682 -1.292269 -0.923880
v -0.382682 1.584538 -0.923880
v -0.195089 -1.292269 -0.980786
v -0.195089 1.584538 -0.980786
v 0.000000 -1.292269 -1.000000
v 0.195090 -1.292269 -0.980785
v 0.382683 -1.292269 -0.923880
v 0.555570 -1.292269 -0.831470
v 0.707107 -1.292269 -0.707107
v 0.831470 -1.292269 -0.555570
v 0.923880 -1.292269 -0.382683
v 0.980785 -1.292269 -0.195090
v 1.000000 -1.292269 -0.000000
v 0.980785 -1.292269 0.195090
v 0.923880 -1.292269 0.382683
v 0.831470 -1.292269 0.555570
v 0.707107 -1.292269 0.707107
v 0.555570 -1.292269 0.831470
v 0.382683 -1.292269 0.923880
v 0.195090 -1.292269 0.980785
v -0.000000 -1.292269 1.000000
v -0.195091 -1.292269 0.980785
v -0.382684 -1.292269 0.923879
v -0.555571 -1.292269 0.831469
v -0.707107 -1.292269 0.707106
v -0.831470 -1.292269 0.555570
v -0.923880 -1.292269 0.382683
v -0.980785 -1.292269 0.195089
v -1.000000 -1.292269 -0.000001
v -0.980785 -1.292269 -0.195091
v -0.923879 -1.292269 -0.382684
v -0.831469 -1.292269 -0.555571
v -0.707106 -1.292269 -0.707108
v -0.555569 -1.292269 -0.831470
v -0.382682 -1.292269 -0.923880
v -0.195089 -1.292269 -0.980786
vt 0.812425 0.000118
vt 0.812500 0.600000
vt 0.781182 0.000118
vt 0.781250 0.600000
vt 0.749940 0.000118
vt 0.750000 0.600000
vt 0.718697 0.000118
vt 0.718750 0.600000
vt 0.687454 0.000119
vt 0.687500 0.600000
vt 0.656211 0.000119
vt 0.656250 0.600000
vt 0.624969 0.000119
vt 0.625000 0.600000
vt 0.593726 0.000119
vt 0.593750 0.600000
vt 0.562483 0.000120
vt 0.562500 0.600000
vt 0.531241 0.000120
vt 0.531250 0.600000
vt 0.499998 0.000120
vt 0.500000 0.600000
vt 0.468756 0.000120
vt 0.468750 0.600000
vt 0.437513 0.000120
vt 0.437500 0.600000
vt 0.406271 0.000120
vt 0.406250 0.600000
vt 0.375028 0.000120
vt 0.375000 0.600000
vt 0.343786 0.000120
vt 0.343750 0.600000
vt 0.312543 0.000120
vt 0.312500 0.600000
vt 0.281301 0.000120
vt 0.281250 0.600000
vt 0.250058 0.000120
vt 0.250000 0.600000
vt 0.218816 0.000120
vt 0.218750 0.600000
vt 0.187573 0.000120
vt 0.187500 0.600000
vt 0.156331 0.000120
vt 0.156250 0.600000
vt 0.125088 0.000120
vt 0.125000 0.600000
vt 0.093846 0.000120
vt 0.093750 0.600000
vt 0.062603 0.000120
vt 0.062500 0.600000
vt 0.031361 0.000120
vt 0.031250 0.600000
vt 0.000118 0.000120
vt 0.999882 0.000117
vt 1.000000 0.600000
vt 0.968639 0.000117
vt 0.968750 0.600000
vt 0.937396 0.000117
vt 0.937500 0.600000
vt 0.906153 0.000117
vt 0.906250 0.600000
vt 0.874911 0.000118
vt 0.234375 0.987500
vt 0.187500 0.987500
vt 0.281250 0.987500
vt 0.843668 0.000118
vt 0.843750 0.600000
vt 0.875000 0.600000
vt 0.906250 0.637500
vt 0.937500 0.675000
vt 0.859375 0.625000
vt 0.000000 0.600000
vt 0.140625 0.962500
vt 0.093750 0.950000
vt 0.062500 0.925000
vt 0.031250 0.887500
vt 0.015625 0.850000
vt 0.015625 0.812500
vt 0.015625 0.775000
vt 0.015625 0.737500
vt 0.031250 0.700000
vt 0.062500 0.675000
vt 0.093750 0.637500
vt 0.140625 0.625000
vt 0.187500 0.612500
vt 0.234375 0.600000
vt 0.328125 0.612500
vt 0.375000 0.625000
vt 0.437500 0.675000
vt 0.406250 0.637500
vt 0.468750 0.700000
vt 0.484375 0.737500
vt 0.500000 0.775000
vt 0.500000 0.812500
vt 0.375000 0.962500
vt 0.437500 0.925000
vt 0.406250 0.950000
vt 0.468750 0.887500
vt 0.484375 0.850000
vt 0.328125 0.987500
vt 0.968750 0.700000
vt 0.984375 0.737500
vt 0.984375 0.775000
vt 0.984375 0.812500
vt 0.984375 0.850000
vt 0.968750 0.887500
vt 0.937500 0.912500
vt 0.906250 0.937500
vt 0.859375 0.962500
vt 0.828125 0.975000
vt 0.781250 0.987500
vt 0.640625 0.625000
vt 0.562500 0.675000
vt 0.593750 0.637500
vt 0.734375 0.987500
vt 0.687500 0.975000
vt 0.562500 0.912500
vt 0.640625 0.962500
vt 0.593750 0.937500
vt 0.515625 0.812500
vt 0.546875 0.887500
vt 0.515625 0.850000
vt 0.546875 0.700000
vt 0.515625 0.775000
vt 0.515625 0.737500
vt 0.828125 0.612500
vt 0.734375 0.600000
vt 0.687500 0.612500
vt 0.378315 0.151781
vt 0.436433 0.138351
vt 0.320313 0.160357
vt 0.260581 0.176166
vt 0.999951 0.000049
vt 0.927604 0.016003
vt 0.135651 0.208743
vt 0.069458 0.225636
vt 0.794639 0.045050
vt 0.731914 0.058071
vt 0.069676 0.226219
vt 0.135504 0.209948
vt 0.674104 0.087509
vt 0.734954 0.071628
vt 0.609932 0.081516
vt 0.551716 0.097167
vt 0.259804 0.179625
vt 0.319573 0.165482
vt 0.436587 0.128510
vt 0.378841 0.144793
vt 0.862038 0.037537
vt 0.929347 0.019255
vt 0.496196 0.129369
vt 0.199187 0.192275
vt 0.859592 0.031658
vt 0.000049 0.243023
vt 0.555255 0.116688
vt 0.614373 0.102581
vt 0.670112 0.069255
vt 0.198592 0.194385
vt 0.797425 0.054977
vt 0.494056 0.112619
vn 0.098018 0.000000 -0.995185
vn 0.290285 0.000000 -0.956940
vn 0.471397 0.000000 -0.881921
vn 0.634393 0.000000 -0.773011
vn 0.773010 0.000000 -0.634393
vn 0.881921 0.000000 -0.471397
vn 0.956940 0.000000 -0.290285
vn 0.995185 0.000000 -0.098017
vn 0.995185 0.000000 0.098017
vn 0.956940 0.000000 0.290285
vn 0.881921 0.000000 0.471396
vn 0.773010 0.000000 0.634393
vn 0.634393 0.000000 0.773010
vn 0.471396 0.000000 0.881922
vn 0.290284 0.000000 0.956940
vn 0.098017 0.000000 0.995185
vn -0.098018 0.000000 0.995185
vn -0.290285 0.000000 0.956940
vn -0.471397 0.000000 0.881921
vn -0.634394 0.000000 0.773010
vn -0.773011 0.000000 0.634393
vn -0.881922 0.000000 0.471396
vn -0.956941 0.000000 0.290284
vn -0.995185 0.000000 0.098016
vn -0.995185 0.000000 -0.098018
vn -0.956940 0.000000 -0.290286
vn -0.881921 0.000000 -0.471398
vn -0.773009 0.000000 -0.634395
vn -0.634392 0.000000 -0.773011
vn -0.471396 0.000000 -0.881922
vn 0.000000 1.000000 0.000000
vn -0.098017 0.000000 -0.995185
vn -0.290284 0.000000 -0.956941
vn 0.000000 -1.000000 -0.000016
vn 0.098017 0.000000 -0.995185
vn 0.634394 0.000000 -0.773010
vn 0.881921 0.000000 -0.471396
vn 0.881921 0.000000 0.471397
vn 0.471397 0.000000 0.881921
vn -0.471398 0.000000 0.881921
vn -0.773010 0.000000 -0.634394
vn -0.634392 0.000000 -0.773012
vn -0.471395 0.000000 -0.881922
vn 0.000000 1.000000 0.000005
vn 0.000000 1.000000 -0.000002
vn 0.000000 1.000000 0.000003
vn 0.000000 1.000000 0.000001
vn 0.000000 1.000000 -0.000003
vn 0.000000 1.000000 -0.000005
vn 0.000000 1.000000 -0.000004
vn 0.000000 1.000000 0.000002
vn -0.098016 0.000000 -0.995185
vn -0.290283 0.000000 -0.956941
vn 0.000000 -1.000000 0.000000
vn 0.000000 -1.000000 -0.000001
vn 0.000000 -1.000000 -0.000004
vn 0.000000 -1.000000 0.000004
vn 0.000000 -1.000000 0.000002
vn 0.000000 0.000000 1.000000
usemtl Material.001
s off
f 1/1/1 2/2/1 3/3/1
f 3/3/2 4/4/2 5/5/2
f 5/5/3 6/6/3 7/7/3
f 7/7/4 8/8/4 9/9/4
f 9/9/5 10/10/5 11/11/5
f 11/11/6 12/12/6 13/13/6
f 13/13/7 14/14/7 15/15/7
f 15/15/8 16/16/8 17/17/8
f 17/17/9 18/18/9 19/19/9
f 19/19/10 20/20/10 21/21/10
f 21/21/11 22/22/11 23/23/11
f 23/23/12 24/24/12 25/25/12
f 25/25/13 26/26/13 27/27/13
f 27/27/14 28/28/14 29/29/14
f 29/29/15 30/30/15 31/31/15
f 31/31/16 32/32/16 33/33/16
f 33/33/17 34/34/17 35/35/17
f 35/35/18 36/36/18 37/37/18
f 37/37/19 38/38/19 39/39/19
f 39/39/20 40/40/20 41/41/20
f 41/41/21 42/42/21 43/43/21
f 43/43/22 44/44/22 45/45/22
f 45/45/23 46/46/23 47/47/23
f 47/47/24 48/48/24 49/49/24
f 49/49/25 50/50/25 51/51/25
f 51/51/26 52/52/26 53/53/26
f 53/54/27 54/55/27 55/56/27
f 55/56/28 56/57/28 57/58/28
f 57/58/29 58/59/29 59/60/29
f 59/60/30 60/61/30 61/62/30
f 4/63/31 2/64/31 6/65/31
f 63/66/32 64/67/32 1/1/32
f 61/62/33 62/68/33 63/66/33
f 65/69/34 66/70/34 96/71/34
f 2/2/35 4/4/35 3/3/35
f 4/4/2 6/6/2 5/5/2
f 6/6/3 8/8/3 7/7/3
f 8/8/36 10/10/36 9/9/36
f 10/10/5 12/12/5 11/11/5
f 12/12/37 14/14/37 13/13/37
f 14/14/7 16/16/7 15/15/7
f 16/16/8 18/18/8 17/17/8
f 18/18/9 20/20/9 19/19/9
f 20/20/10 22/22/10 21/21/10
f 22/22/38 24/24/38 23/23/38
f 24/24/12 26/26/12 25/25/12
f 26/26/13 28/28/13 27/27/13
f 28/28/39 30/30/39 29/29/39
f 30/30/15 32/32/15 31/31/15
f 32/32/16 34/34/16 33/33/16
f 34/34/17 36/36/17 35/35/17
f 36/36/18 38/38/18 37/37/18
f 38/38/40 40/40/40 39/39/40
f 40/40/20 42/42/20 41/41/20
f 42/42/21 44/44/21 43/43/21
f 44/44/22 46/46/22 45/45/22
f 46/46/23 48/48/23 47/47/23
f 48/48/24 50/50/24 49/49/24
f 50/50/25 52/52/25 51/51/25
f 52/52/26 54/72/26 53/53/26
f 54/55/27 56/57/27 55/56/27
f 56/57/41 58/59/41 57/58/41
f 58/59/42 60/61/42 59/60/42
f 60/61/43 62/68/43 61/62/43
f 2/64/44 64/73/44 6/65/44
f 64/73/31 62/74/31 6/65/31
f 62/74/31 60/75/31 6/65/31
f 60/75/45 58/76/45 6/65/45
f 58/76/46 56/77/46 6/65/46
f 56/77/31 54/78/31 6/65/31
f 54/78/45 52/79/45 6/65/45
f 52/79/31 50/80/31 6/65/31
f 50/80/31 48/81/31 6/65/31
f 48/81/31 46/82/31 6/65/31
f 46/82/31 44/83/31 6/65/31
f 44/83/47 42/84/47 6/65/47
f 42/84/31 40/85/31 6/65/31
f 38/86/31 36/36/31 34/87/31
f 38/86/48 34/87/48 32/88/48
f 40/85/48 38/86/48 32/88/48
f 6/65/31 40/85/31 32/88/31
f 28/89/31 32/88/31 30/90/31
f 26/91/49 32/88/49 28/89/49
f 24/92/46 32/88/46 26/91/46
f 22/93/48 32/88/48 24/92/48
f 20/94/31 32/88/31 22/93/31
f 10/95/50 14/96/50 12/97/50
f 10/95/31 16/98/31 14/96/31
f 18/99/51 32/88/51 20/94/51
f 16/98/31 32/88/31 18/99/31
f 10/95/31 32/88/31 16/98/31
f 8/100/31 6/65/31 32/88/31
f 10/95/31 8/100/31 32/88/31
f 64/67/52 2/2/52 1/1/52
f 62/68/53 64/67/53 63/66/53
f 66/70/54 67/101/54 96/71/54
f 67/101/54 68/102/54 96/71/54
f 68/102/54 69/103/54 96/71/54
f 69/103/54 70/104/54 96/71/54
f 70/104/54 71/105/54 96/71/54
f 71/105/54 72/106/54 96/71/54
f 72/106/54 73/107/54 96/71/54
f 73/107/54 74/108/54 96/71/54
f 74/108/54 75/109/54 96/71/54
f 75/109/55 76/110/55 96/71/55
f 76/110/54 77/111/54 96/71/54
f 91/112/54 89/113/54 90/114/54
f 77/111/54 78/115/54 79/116/54
f 96/71/54 77/111/54 79/116/54
f 82/117/54 80/118/54 81/119/54
f 82/117/56 79/116/56 80/118/56
f 96/71/54 79/116/54 82/117/54
f 85/120/54 83/121/54 84/122/54
f 85/120/57 82/117/57 83/121/57
f 96/71/54 82/117/54 85/120/54
f 88/123/58 86/124/58 87/125/58
f 95/126/54 96/71/54 85/120/54
f 91/112/54 88/123/54 89/113/54
f 91/112/54 86/124/54 88/123/54
f 94/4/54 95/126/54 85/120/54
f 93/127/54 94/4/54 85/120/54
f 92/128/54 93/127/54 85/120/54
f 91/112/54 92/128/54 86/124/54
f 92/128/54 85/120/54 86/124/54
usemtl Material.001_NONE
f 61/129/59 63/130/59 95/129/59
f 39/131/59 41/132/59 84/131/59
f 17/133/59 19/134/59 73/133/59
f 45/135/59 47/136/59 87/135/59
f 23/137/59 25/138/59 76/137/59
f 51/139/59 53/140/59 90/139/59
f 7/141/59 9/142/59 68/141/59
f 29/143/59 31/144/59 79/143/59
f 57/145/59 59/146/59 93/145/59
f 35/147/59 37/148/59 82/147/59
f 13/149/59 15/150/59 71/149/59
f 63/130/59 1/151/59 96/130/59
f 41/132/59 43/152/59 85/132/59
f 19/134/59 21/153/59 74/134/59
f 47/136/59 49/154/59 88/136/59
f 3/155/59 5/156/59 66/155/59
f 25/138/59 27/157/59 77/138/59
f 53/140/59 55/158/59 91/140/59
f 9/142/59 11/159/59 69/142/59
f 31/144/59 33/160/59 80/144/59
f 59/146/59 61/129/59 94/146/59
f 37/148/59 39/131/59 83/148/59
f 1/151/59 3/155/59 65/151/59
f 15/150/59 17/133/59 72/150/59
f 43/152/59 45/135/59 86/152/59
f 21/153/59 23/137/59 75/153/59
f 49/154/59 51/139/59 89/154/59
f 5/156/59 7/141/59 67/156/59
f 27/157/59 29/143/59 78/157/59
f 55/158/59 57/145/59 92/158/59
f 33/160/59 35/147/59 81/160/59
f 11/159/59 13/149/59 70/159/59
f 63/130/59 96/130/59 95/129/59
f 41/132/59 85/132/59 84/131/59
f 19/134/59 74/134/59 73/133/59
f 47/136/59 88/136/59 87/135/59
f 25/138/59 77/138/59 76/137/59
f 53/140/59 91/140/59 90/139/59
f 9/142/59 69/142/59 68/141/59
f 31/144/59 80/144/59 79/143/59
f 59/146/59 94/146/59 93/145/59
f 37/148/59 83/148/59 82/147/59
f 15/150/59 72/150/59 71/149/59
f 1/151/59 65/151/59 96/130/59
f 43/152/59 86/152/59 85/132/59
f 21/153/59 75/153/59 74/134/59
f 49/154/59 89/154/59 88/136/59
f 5/156/59 67/156/59 66/155/59
f 27/157/59 78/157/59 77/138/59
f 55/158/59 92/158/59 91/140/59
f 11/159/59 70/159/59 69/142/59
f 33/160/59 81/160/59 80/144/59
f 61/129/59 95/129/59 94/146/59
f 39/131/59 84/131/59 83/148/59
f 3/155/59 66/155/59 65/151/59
f 17/133/59 73/133/59 72/150/59
f 45/135/59 87/135/59 86/152/59
f 23/137/59 76/137/59 75/153/59
f 51/139/59 90/139/59 89/154/59
f 7/141/59 68/141/59 67/156/59
f 29/143/59 79/143/59 78/157/59
f 57/145/59 93/145/59 92/158/59
f 35/147/59 82/147/59 81/160/59
f 13/149/59 71/149/59 70/159/59
