# Blender v2.71 (sub 0) OBJ File: ''
# www.blender.org
mtllib lightsource.mtl
o Plane.001
v -0.000000 -0.800000 -0.800000
v -0.000000 -0.800000 0.800000
v 0.000000 0.800000 -0.800000
v 0.000000 0.800000 0.800000
v -0.800000 -0.800000 0.000000
v 0.800000 -0.800000 0.000000
v -0.800000 0.800000 -0.000000
v 0.800000 0.800000 -0.000000
v -0.800000 0.000000 0.800000
v 0.800000 0.000000 0.800000
v -0.800000 0.000000 -0.800000
v 0.800000 0.000000 -0.800000
vt 1.000000 1.000000
vt 0.000000 1.000000
vt 0.000000 0.000000
vt 1.000000 0.000000
vn -1.000000 0.000000 0.000000
vn 0.000000 0.000000 1.000000
vn 0.000000 1.000000 0.000000
usemtl Material.001
s off
f 2/1/1 4/2/1 3/3/1
f 6/3/2 8/4/2 7/1/2
f 10/3/3 12/4/3 11/1/3
f 1/4/1 2/1/1 3/3/1
f 5/2/2 6/3/2 7/1/2
f 9/2/3 10/3/3 11/1/3
