# Blender v2.71 (sub 0) OBJ File: 'shelf.blend'
# www.blender.org
v -0.500000 0.000000 1.000000
v -0.500000 0.000000 -1.000000
v 0.500000 0.000000 -1.000000
v 0.500000 0.000000 1.000000
v -0.500000 2.000000 1.000000
v -0.500000 2.000000 -1.000000
v 0.500000 2.000000 -1.000000
v 0.500000 2.000000 1.000000
v -0.500000 2.000000 -0.900070
v -0.500000 0.000000 0.900000
v 0.400000 2.000000 -1.000000
v -0.400000 0.000000 -1.000000
v 0.500000 2.000000 0.900000
v 0.500000 0.000000 -0.900000
v -0.400000 2.000000 1.000000
v 0.400000 0.000000 1.000000
v -0.500000 2.000000 0.900000
v -0.500000 0.000000 -0.900000
v -0.400000 2.000000 -1.000000
v 0.400000 0.000000 -1.000000
v 0.500000 2.000000 -0.900000
v 0.500000 0.000000 0.900000
v 0.400000 2.000000 1.000000
v -0.400000 0.000000 1.000000
v -0.496122 0.709135 0.997562
v 0.497031 0.709135 0.997562
v -0.495954 0.709135 -0.997956
v 0.497816 0.709135 -0.997956
v -0.496122 1.427410 0.997562
v 0.497031 1.427410 0.997562
v -0.495954 1.427410 -0.997956
v 0.497816 1.427410 -0.997956
v -0.496122 0.169164 0.997562
v 0.497031 0.169164 0.997562
v -0.495954 0.169164 -0.997956
v 0.497816 0.169164 -0.997956
v -0.496122 1.963325 0.997562
v 0.497031 1.963325 0.997562
v -0.495954 1.963325 -0.997956
v 0.497816 1.963325 -0.997956
vt 1.000000 0.968750
vt 1.000000 1.000000
vt 0.000000 1.000000
vt 0.000000 0.968750
vt 0.000000 0.500000
vt 0.000000 0.000000
vt 1.000000 0.000000
vt 0.000513 0.000213
vt 1.000000 0.500000
vn 0.000000 0.000000 -1.000000
vn -1.000000 0.000000 0.000000
vn 0.000000 0.000000 1.000000
vn 1.000000 0.000000 0.000000
vn 0.000000 1.000000 -0.000000
s off
f 6/1/1 19/2/1 12/3/1
f 5/1/2 17/4/2 10/3/2
f 1/4/3 24/3/3 15/2/3
f 7/1/4 21/2/4 14/3/4
f 6/2/2 2/3/2 18/4/2
f 3/4/1 20/3/1 11/2/1
f 8/1/3 23/2/3 16/3/3
f 4/4/4 22/3/4 13/2/4
f 25/5/5 26/6/5 28/7/5
f 29/5/5 30/8/5 32/7/5
f 33/5/5 34/6/5 36/7/5
f 37/5/5 38/6/5 40/7/5
f 2/4/1 6/1/1 12/3/1
f 1/4/2 5/1/2 10/3/2
f 5/1/3 1/4/3 15/2/3
f 3/4/4 7/1/4 14/3/4
f 9/1/2 6/2/2 18/4/2
f 7/1/1 3/4/1 11/2/1
f 4/4/3 8/1/3 16/3/3
f 8/1/4 4/4/4 13/2/4
f 27/9/5 25/5/5 28/7/5
f 31/9/5 29/5/5 32/7/5
f 35/9/5 33/5/5 36/7/5
f 39/9/5 37/5/5 40/7/5
