# Blender v2.69 (sub 0) OBJ File: ''
# www.blender.org
mtllib simple_environement.mtl
o Cube
v 48.000000 -0.500000 -48.000000
v 48.000000 -0.500000 48.000000
v -48.000008 -0.500000 47.999989
v -47.999977 -0.500000 -48.000015
v 48.000023 0.500000 -47.999977
v 47.999969 0.500000 48.000031
v -48.000015 0.500000 47.999985
v -47.999992 0.500000 -48.000000
v 18.981262 -4.535973 4.262135
v -40.455822 5.527418 4.262135
v 18.981262 -4.535973 -5.427493
v -40.455822 5.527418 -5.427493
vt 12.531250 12.531250
vt 12.531250 -7.500000
vt -7.500000 12.531250
vt -3.933594 15.910156
vt -3.933594 -14.847656
vt 4.933594 15.878906
vt 24.808594 0.496094
vt 12.636719 0.496094
vt 12.660156 0.992188
vt 0.500000 0.496094
vt -11.660156 0.496094
vt 0.500000 0.992188
vt -23.808594 0.992188
vt -11.636719 0.992188
vt -23.832031 0.496094
vt -7.500000 -7.500000
vt 4.933594 -14.878906
vt 24.832031 0.992188
vn 0.000000 1.000000 0.000000
vn 0.166936 0.985968 0.000000
vn -1.000000 -0.000031 0.000000
vn 0.000000 0.000031 -1.000000
vn 1.000000 0.000010 0.000000
vn -0.000000 -0.000023 1.000000
vn -1.000000 0.000020 -0.000001
vn 0.000000 -0.000004 -1.000000
vn -0.000000 -0.000015 1.000000
usemtl Material
s off
f 1/1/1 4/2/1 2/3/1
f 10/4/2 9/5/2 12/6/2
f 1/7/3 2/8/3 6/9/3
f 2/8/4 3/10/4 6/9/4
f 3/10/5 4/11/5 7/12/5
f 5/13/6 8/14/6 1/15/6
f 4/2/1 3/16/1 2/3/1
f 9/5/2 11/17/2 12/6/2
f 5/18/7 1/7/7 6/9/7
f 3/10/8 7/12/8 6/9/8
f 4/11/5 8/14/5 7/12/5
f 8/14/9 4/11/9 1/15/9
